<svg xmlns="http://www.w3.org/2000/svg" viewBox="0 0 64 64" fill="none">
  <rect width="64" height="64" rx="12" fill="#0a0a0f"/>
  <rect x="2" y="2" width="60" height="60" rx="10" stroke="#22d3ee" stroke-width="1.5" stroke-opacity="0.3"/>
  
  <!-- Grid lines -->
  <line x1="16" y1="8" x2="16" y2="56" stroke="#22d3ee" stroke-width="0.5" stroke-opacity="0.15"/>
  <line x1="32" y1="8" x2="32" y2="56" stroke="#22d3ee" stroke-width="0.5" stroke-opacity="0.15"/>
  <line x1="48" y1="8" x2="48" y2="56" stroke="#22d3ee" stroke-width="0.5" stroke-opacity="0.15"/>
  <line x1="8" y1="16" x2="56" y2="16" stroke="#22d3ee" stroke-width="0.5" stroke-opacity="0.15"/>
  <line x1="8" y1="32" x2="56" y2="32" stroke="#22d3ee" stroke-width="0.5" stroke-opacity="0.15"/>
  <line x1="8" y1="48" x2="56" y2="48" stroke="#22d3ee" stroke-width="0.5" stroke-opacity="0.15"/>
  
  <!-- Radar circles -->
  <circle cx="32" cy="32" r="10" stroke="#22d3ee" stroke-width="1" stroke-opacity="0.3" fill="none"/>
  <circle cx="32" cy="32" r="18" stroke="#22d3ee" stroke-width="0.8" stroke-opacity="0.2" fill="none"/>
  <circle cx="32" cy="32" r="26" stroke="#22d3ee" stroke-width="0.6" stroke-opacity="0.1" fill="none"/>
  
  <!-- Radar sweep -->
  <path d="M32 32 L32 6" stroke="#22d3ee" stroke-width="1.5" stroke-opacity="0.6"/>
  <path d="M32 32 L50 14" stroke="#22d3ee" stroke-width="1" stroke-opacity="0.3"/>
  
  <!-- Radar sweep glow -->
  <path d="M32 32 L32 6 A26 26 0 0 1 50 14 Z" fill="url(#sweep)"/>
  
  <!-- Center dot -->
  <circle cx="32" cy="32" r="3" fill="#22d3ee"/>
  <circle cx="32" cy="32" r="5" fill="#22d3ee" fill-opacity="0.2"/>
  
  <!-- Detection points -->
  <circle cx="40" cy="22" r="2" fill="#f43f5e" opacity="0.9"/>
  <circle cx="40" cy="22" r="4" fill="#f43f5e" opacity="0.2"/>
  <circle cx="24" cy="40" r="1.5" fill="#22d3ee" opacity="0.7"/>
  
  <defs>
    <radialGradient id="sweep" cx="32" cy="32" r="26" gradientUnits="userSpaceOnUse">
      <stop offset="0" stop-color="#22d3ee" stop-opacity="0.15"/>
      <stop offset="1" stop-color="#22d3ee" stop-opacity="0.02"/>
    </radialGradient>
  </defs>
</svg>
